<svg viewBox="0 0 96 91" fill="currentColor" xmlns="http://www.w3.org/2000/svg">
<path d="M68 69.9601C62.6 69.9601 59.2 71.6401 56.2 73.1601C53.6 74.4801 51.48 75.5601 48 75.5601C44.4 75.5601 42.4 74.5601 39.8 73.1601C36.8 71.6401 33.52 69.9601 28 69.9601C22.48 69.9601 19.2 71.6401 16.2 73.1601C13.6 74.4801 11.52 75.5601 8 75.5601V83.3601C13.4 83.3601 16.8 81.6801 19.8 80.1601C22.4 78.8401 24.48 77.7601 28 77.7601C31.52 77.7601 33.6 78.7601 36.2 80.1601C39.2 81.6801 42.48 83.3601 48 83.3601C53.52 83.3601 56.8 81.6801 59.8 80.1601C62.4 78.8401 64.52 77.7601 68 77.7601C71.6 77.7601 73.6 78.7601 76.2 80.1601C79.2 81.6801 82.52 83.3601 88 83.3601V75.5601C84.4 75.5601 82.4 74.5601 79.8 73.1601C76.8 71.6401 73.4 69.9601 68 69.9601ZM68 52.1601C62.6 52.1601 59.2 53.8801 56.2 55.3601C53.6 56.6401 51.48 57.7601 48 57.7601C44.4 57.7601 42.4 56.7601 39.8 55.3601C36.8 53.8401 33.52 52.1601 28 52.1601C22.48 52.1601 19.2 53.8801 16.2 55.3601C13.6 56.6401 11.52 57.7601 8 57.7601V65.5601C13.4 65.5601 16.8 63.8401 19.8 62.3601C22.4 60.9601 24.4 59.9601 28 59.9601C31.6 59.9601 33.6 60.9601 36.2 62.3601C39.2 63.8801 42.48 65.5601 48 65.5601C53.52 65.5601 56.8 63.8401 59.8 62.3601C62.4 60.9601 64.4 59.9601 68 59.9601C71.6 59.9601 73.6 60.9601 76.2 62.3601C79.2 63.8801 82.52 65.5601 88 65.5601V57.7601C84.4 57.7601 82.4 56.7601 79.8 55.3601C76.8 53.8401 73.4 52.1601 68 52.1601ZM79.8 19.8401C76.8 18.3201 73.48 16.6401 68 16.6401C62.52 16.6401 59.2 18.3201 56.2 19.8401C53.6 21.1201 51.48 22.2401 48 22.2401C44.4 22.2401 42.4 21.2401 39.8 19.8401C36.8 18.3601 33.52 16.6401 28 16.6401C22.48 16.6401 19.2 18.3201 16.2 19.8401C13.6 21.1601 11.52 22.2401 8 22.2401V29.9601C13.4 29.9601 16.8 28.2401 19.8 26.7601C22.4 25.4401 24.48 24.3601 28 24.3601C31.52 24.3601 33.6 25.3601 36.2 26.7601C39.2 28.2801 42.48 29.9601 48 29.9601C53.52 29.9601 56.8 28.2401 59.8 26.7601C62.4 25.4801 64.52 24.3601 68 24.3601C71.6 24.3601 73.6 25.3601 76.2 26.7601C79.2 28.2801 82.52 29.9601 88 29.9601V22.1601C84.4 22.1601 82.4 21.1601 79.8 19.8401ZM68 34.3601C62.6 34.3601 59.2 36.0801 56.2 37.5601C53.6 38.9601 51.6 39.9601 48 39.9601C44.4 39.9601 42.4 38.9601 39.8 37.5601C36.8 36.0401 33.52 34.3601 28 34.3601C22.48 34.3601 19.2 36.0801 16.2 37.5601C13.6 38.9601 11.6 39.9601 8 39.9601V47.7601C13.4 47.7601 16.8 46.0401 19.8 44.5601C22.4 43.2801 24.52 42.1601 28 42.1601C31.48 42.1601 33.6 43.1601 36.2 44.5601C39.2 46.0801 42.48 47.7601 48 47.7601C53.52 47.7601 56.8 46.0401 59.8 44.5601C62.4 43.2801 64.52 42.1601 68 42.1601C71.6 42.1601 73.6 43.1601 76.2 44.5601C79.2 46.0801 82.52 47.7601 88 47.7601V39.9601C84.4 39.9601 82.4 38.9601 79.8 37.5601C76.8 36.0401 73.4 34.3601 68 34.3601Z" />
</svg>
